<?xml version="1.0" encoding="utf-8"?>
<svg xmlns="http://www.w3.org/2000/svg" viewBox="0 0 456 456" width="456px" height="456px">
  <path d="M 117.156 21.43 C 112.16 21.7 109.22 22.14 106.737 22.99 C 97.579 26.13 89.15 31.795 84.719 37.791 C 81.952 41.539 79.14 47.551 78.071 52.005 C 76.757 57.488 76.479 66.494 77.476 71.194 C 79.359 80.06 86.103 89.504 94.69 95.298 L 98.572 97.918 L 98.831 122.701 C 98.974 136.332 99.268 148.027 99.486 148.69 C 99.842 149.778 99.706 149.895 98.078 149.903 C 95.018 149.916 94.697 150.43 94.402 155.771 C 94.255 158.437 94.214 160.855 94.313 161.145 C 94.411 161.435 95.346 161.673 96.391 161.673 C 98.288 161.673 98.29 161.676 97.958 163.681 C 97.776 164.785 97.624 171.17 97.62 177.868 C 97.615 189.739 97.587 190.048 96.531 190.048 C 95.86 190.048 95.247 190.572 94.924 191.422 C 93.764 194.473 94.723 214.351 96.165 217.138 C 97.197 219.134 100.021 221.966 102.165 223.155 C 103.424 223.853 105.224 224.046 110.478 224.046 C 116.621 224.046 117.409 223.931 119.843 222.678 C 121.732 221.706 122.966 220.557 124.111 218.703 L 125.722 216.095 L 125.588 203.259 C 125.503 195.243 125.242 190.169 124.889 189.744 C 124.503 189.28 124.442 184.751 124.693 175.502 C 125.028 163.251 125.16 161.848 126.062 160.983 C 127.133 159.956 127.371 156.046 126.626 151.768 C 126.305 149.934 125.998 149.552 124.481 149.105 L 122.71 148.583 L 123.098 143.216 C 123.314 140.264 123.51 129.476 123.535 119.244 L 123.581 100.638 L 141.918 100.525 C 152.003 100.463 161.52 100.403 163.066 100.391 L 165.877 100.371 L 165.877 108.401 C 165.877 116.28 165.908 116.498 167.539 119.913 C 170.454 126.016 170.552 126.081 176.736 125.999 L 182.065 125.929 L 182.734 128.943 C 183.102 130.603 183.867 132.872 184.433 133.989 C 186.617 138.294 192.107 142.393 195.704 142.405 C 196.672 142.408 198.31 142.551 199.344 142.722 L 201.225 143.033 L 199.162 145.259 C 194.873 149.886 190.237 159.892 190.237 164.52 C 190.237 166.701 190.401 166.765 197.336 167.316 L 202.025 167.69 L 204.327 165.568 C 212.126 158.379 222.924 156.638 233.106 160.928 C 238.251 163.098 238.571 163.509 237.606 166.713 C 237.171 168.158 236.816 170.602 236.816 172.145 C 236.816 174.012 236.369 175.911 235.482 177.816 C 233.85 181.323 233.741 184.58 235.197 186.43 C 237.259 189.053 239.786 188.491 241.105 185.117 C 241.484 184.149 242.486 181.739 243.331 179.762 C 244.624 176.741 244.852 175.529 244.764 172.138 C 244.706 169.921 244.842 167.924 245.065 167.7 C 245.288 167.477 247.438 167.246 249.843 167.185 L 254.217 167.075 L 254.09 163.437 C 253.899 157.967 252.679 154.874 248.536 149.356 C 246.507 146.655 244.846 144.397 244.846 144.339 C 244.846 144.282 247.075 144.554 249.8 144.945 C 252.523 145.335 257.282 146.016 260.373 146.457 C 263.465 146.897 269.091 147.297 272.875 147.345 C 279.58 147.429 279.767 147.464 280.236 148.697 C 280.501 149.394 280.722 150.972 280.726 152.205 C 280.73 153.437 281.038 155.047 281.411 155.784 L 282.088 157.122 L 321.425 156.923 C 357.702 156.74 361.023 156.798 364.117 157.666 C 372.723 160.081 380.649 155.743 385.658 145.873 C 387.336 142.568 387.528 141.742 387.528 137.876 C 387.528 129.644 384.107 123.356 377.898 120.182 L 374.755 118.575 L 327.955 118.575 C 286.92 118.575 281.1 118.673 280.693 119.378 C 280.422 119.846 280.283 115.979 280.357 110.09 L 280.486 100 L 289.035 100.185 C 293.736 100.288 308.064 100.358 320.872 100.343 C 343.722 100.315 344.228 100.292 347.642 99.092 C 360.788 94.469 368.3 86.938 372.763 73.903 C 376.032 64.357 374.1 49.987 368.187 39.874 C 363.325 31.553 356.52 26.37 346.284 23.18 L 341.485 21.69 L 306.55 21.52 C 283.51 21.41 271.617 21.54 271.617 21.89 C 271.617 22.18 271.881 24.2 272.203 26.37 L 272.79 30.317 L 303.926 30.338 C 339.098 30.37 340.033 30.451 348.081 34.322 C 358.901 39.515 364.737 49.286 364.765 62.253 C 364.796 76.194 356.788 87.821 345.177 90.693 C 342.073 91.462 303.453 92.11 249.13 92.309 C 239.56 92.344 230.739 92.562 229.529 92.793 C 228.318 93.023 223.981 92.952 219.892 92.633 C 215.645 92.304 190.161 91.948 160.478 91.806 C 110.46 91.566 108.371 91.517 105.066 90.49 C 91.044 86.138 83.374 69.433 87.73 52.729 C 89.061 47.621 90.644 44.971 94.949 40.628 C 99.36 36.185 104.337 33.321 110.199 31.849 C 114.938 30.66 133.542 30.172 156.035 30.638 C 166.714 30.863 175.64 30.858 175.869 30.627 C 176.099 30.398 176.568 28.32 176.911 26.02 C 177.43 22.53 177.41 21.74 176.791 21.35 C 175.93 20.81 127.472 20.88 117.156 21.43 M 216.212 22.49 C 206.746 25.01 198.988 31.099 194.64 39.419 C 191.41 45.597 190.784 48.065 190.787 54.597 C 190.792 61.836 191.795 66.429 194.495 71.59 C 200.865 83.763 211.817 90.466 225.334 90.466 C 232.411 90.466 239.166 88.224 245.311 83.837 C 250.848 79.884 257.458 69.315 258.722 62.392 C 260.127 54.71 258.98 46.331 255.641 39.874 C 252.99 34.745 245.386 27.1 240.563 24.72 C 233.849 21.4 223.781 20.48 216.212 22.49 M 217.955 31.335 C 210.879 33.048 205.128 37.694 201.921 44.28 C 200.228 47.76 200.157 48.157 200.149 54.33 C 200.144 58.902 200.406 61.605 201.058 63.709 C 202.989 69.936 208.342 75.916 214.865 79.123 C 218.816 81.067 218.983 81.099 225.305 81.099 C 231.391 81.099 231.914 81.007 235.209 79.434 C 239.468 77.394 245.181 72.233 247.121 68.667 C 252.368 59.03 250.573 46.015 242.949 38.412 C 236.214 31.698 227.097 29.118 217.955 31.335 M 223.206 36.881 C 221.991 38.225 218.611 47.23 218.616 49.11 C 218.621 51.866 219.692 54.33 222.632 58.334 C 224.249 60.534 225.572 62.874 225.572 63.533 C 225.572 64.192 224.893 65.525 224.062 66.488 C 221.474 69.502 220.754 70.835 220.754 72.619 C 220.754 74.637 222.327 76.013 224.633 76.013 C 226.437 76.013 230.904 71.612 232.549 68.212 C 234.758 63.651 233.316 57.697 228.824 52.825 C 226.213 49.992 226.081 48.59 228.035 44.425 C 229.842 40.57 229.926 38.177 228.299 36.859 C 226.704 35.569 224.385 35.574 223.206 36.881 M 209.47 41.169 C 207.617 43.022 207.56 43.584 208.99 45.929 C 209.906 47.428 210.334 47.674 211.799 47.535 C 213.15 47.401 213.749 46.952 214.547 45.463 C 215.917 42.904 215.417 40.972 213.183 40.195 C 211.005 39.434 211.275 39.365 209.47 41.169 M 236.813 41.341 C 235.639 43.273 235.817 44.585 237.507 46.433 C 239.553 48.665 241.707 47.407 242.486 43.515 C 242.739 42.251 242.55 41.592 241.69 40.73 C 239.991 39.033 238.073 39.274 236.813 41.341 M 116.085 45.447 C 111.109 46.32 106.741 49.891 104.039 55.298 C 100.253 62.874 103.321 71.039 111.631 75.493 C 114.581 77.073 115.496 77.303 118.762 77.276 C 125.92 77.223 131.771 72.8 134.616 65.305 C 136.762 59.641 135.257 54.705 129.863 49.709 C 125.853 45.998 121.178 44.553 116.085 45.447 M 287.41 45.506 C 282.146 46.095 277.293 49.735 274.543 55.17 C 273.276 57.665 273.141 58.452 273.321 62.306 C 273.636 69.069 276.124 72.864 282.191 75.831 C 290.599 79.947 298.84 76.752 304.021 67.366 C 306.074 63.651 306.189 58.832 304.313 55.133 C 300.875 48.344 294.496 44.709 287.41 45.506 M 329.734 45.817 C 319.982 48.916 314.882 59.405 318.878 68.137 C 321.717 74.336 326.469 77.613 332.622 77.619 C 337.486 77.624 340.824 76.302 344.468 72.939 C 348.373 69.331 350.004 65.819 350 61.022 C 349.993 50.823 339.273 42.781 329.734 45.817 M 159.568 48.215 C 154.989 49.302 152.024 52.139 150.375 57.006 C 147.635 65.085 155.252 75.429 163.031 74.181 C 166.12 73.689 170.153 71.478 171.722 69.422 C 175.814 64.058 175.654 57.301 171.323 52.584 C 167.969 48.927 163.523 47.273 159.568 48.215 M 202.321 53.831 C 201.851 54.303 201.48 55.571 201.48 56.712 C 201.48 58.291 201.779 58.949 202.8 59.619 C 206.618 62.119 210.783 58.607 208.722 54.624 C 207.975 53.178 207.606 52.991 205.52 52.991 C 204.091 52.991 202.831 53.323 202.321 53.831 M 242.831 53.542 C 241.742 53.981 240.563 55.952 240.563 57.333 C 240.563 58.291 243.174 60.486 244.311 60.486 C 244.927 60.486 246.028 59.886 246.758 59.159 C 248.297 57.616 248.126 55.485 246.338 53.928 C 245.147 52.889 244.612 52.831 242.831 53.542 M 115.268 54.972 C 112.445 56.915 111.325 59.271 111.823 62.216 C 112.536 66.439 117.793 69.797 121.608 68.469 C 123.689 67.746 126.526 63.623 126.523 61.327 C 126.521 59.169 124.826 56.455 122.649 55.127 C 120.502 53.821 117.046 53.745 115.268 54.972 M 285.536 55.266 C 282.024 57.66 280.873 61.922 282.857 65.171 C 284.903 68.533 289.312 69.99 292.719 68.437 C 294.706 67.533 296.78 64.09 296.778 61.702 C 296.772 55.936 290.124 52.134 285.536 55.266 M 329.782 55.041 C 327.402 56.663 326.233 58.832 326.23 61.649 C 326.222 67.35 333.122 71.066 337.787 67.869 C 340.169 66.237 341.218 64.234 341.218 61.316 C 341.218 59.18 340.932 58.532 339.162 56.632 C 337.331 54.672 336.79 54.404 334.209 54.217 C 331.971 54.051 330.965 54.238 329.782 55.041 M 159.572 57.14 C 158.644 58.162 157.578 60.663 157.578 61.814 C 157.578 62.216 158.202 63.287 158.964 64.192 C 161.756 67.505 166.145 65.589 166.145 61.048 C 166.145 57.408 161.714 54.774 159.572 57.14 M 211.739 67.103 C 210.754 67.457 209.721 68.158 209.441 68.662 C 208.766 69.866 209.765 71.73 211.088 71.73 C 212.311 71.73 214.978 68.688 214.756 67.554 C 214.541 66.439 213.857 66.339 211.739 67.103 M 107.674 104.954 C 107.537 107.327 107.539 118.41 107.679 129.582 L 107.934 149.895 L 111.072 149.895 L 114.211 149.895 L 114.211 125.267 L 114.211 100.638 L 111.067 100.638 L 107.924 100.638 L 107.674 104.954 M 176.325 107.68 C 176.33 111.316 176.538 114.614 176.788 115.009 C 177.524 116.171 186.97 116.633 211.652 116.719 C 224.168 116.762 242.478 116.83 252.343 116.873 L 270.278 116.948 L 270.461 115.084 C 270.563 114.059 270.479 110.517 270.276 107.212 L 269.906 101.206 L 257.778 101.466 C 251.107 101.61 240.586 101.996 234.394 102.326 C 226.161 102.764 220.77 102.767 214.317 102.336 C 209.466 102.013 198.931 101.594 190.906 101.408 L 176.317 101.069 L 176.325 107.68 M 197.067 126.196 L 194.528 126.396 L 195.602 128.5 C 197.563 132.344 199.561 133.055 210.539 133.817 C 231.278 135.254 237.984 135.556 238.469 135.071 C 238.748 134.792 239.128 132.592 239.313 130.183 L 239.652 125.802 L 219.629 125.898 C 208.616 125.952 198.463 126.085 197.067 126.196 M 249.585 129.818 C 249.542 131.731 249.48 133.593 249.451 133.955 C 249.42 134.342 250.49 134.782 252.075 135.029 C 253.547 135.258 257.282 135.955 260.373 136.576 C 263.844 137.273 268.38 137.742 272.228 137.799 L 278.461 137.893 L 278.786 135.52 C 278.966 134.216 279.112 132.24 279.112 131.129 L 279.112 129.11 L 274.427 128.807 C 271.851 128.64 266.61 128.015 262.783 127.419 C 258.954 126.822 254.437 126.335 252.744 126.336 L 249.666 126.338 L 249.585 129.818 M 287.728 136.912 C 287.817 141.844 287.988 146.18 288.109 146.548 C 288.244 146.963 289.325 147.218 290.947 147.218 L 293.567 147.218 L 293.6 141.462 C 293.618 138.296 293.809 133.961 294.023 131.825 L 294.411 127.944 L 290.989 127.944 L 287.566 127.944 L 287.728 136.912 M 325.155 128.455 L 299.724 128.747 L 299.4 132.762 C 299.221 134.97 298.884 139.126 298.65 141.998 L 298.224 147.218 L 330.83 147.352 C 374.723 147.532 370.937 147.622 372.637 146.353 C 373.432 145.76 374.801 144.386 375.679 143.3 C 377.066 141.588 377.28 140.88 377.297 137.981 C 377.319 134.015 376.334 131.86 373.518 129.711 L 371.554 128.212 L 361.07 128.188 C 355.304 128.175 339.142 128.296 325.155 128.455 M 213.794 145.548 C 209.805 146.836 207.703 147.99 205.158 150.29 C 203.272 151.993 200.566 156.133 201.041 156.586 C 201.135 156.677 203.139 155.571 205.496 154.131 C 214.504 148.623 225.879 147.834 234.463 152.122 C 235.678 152.728 238.33 154.511 240.358 156.084 C 242.385 157.657 244.118 158.733 244.209 158.475 C 244.865 156.611 239.024 149.904 234.695 147.548 C 229.262 144.591 219.619 143.669 213.794 145.548 M 107.07 167.319 C 106.875 171.374 106.716 178.267 106.716 182.638 L 106.716 190.584 L 110.687 190.584 L 114.657 190.584 L 114.844 175.727 C 114.945 167.556 115.026 160.831 115.022 160.781 C 115.018 160.733 113.306 160.524 111.219 160.319 L 107.423 159.945 L 107.07 167.319 M 221.051 164.529 C 219.969 165.321 219.853 166.732 220.472 171.599 C 220.851 174.58 220.752 175.092 219.213 178.142 C 217.226 182.079 217.106 184.425 218.768 186.891 C 219.699 188.274 220.374 188.71 221.578 188.71 C 222.989 188.71 223.36 188.327 224.951 185.23 C 227.686 179.903 229.32 175.588 229.32 173.693 C 229.32 171.529 228.266 169.004 226.15 166.09 C 224.391 163.672 222.865 163.204 221.051 164.529 M 206.413 168.991 C 204.992 170.333 203.858 172.711 201.164 179.99 C 199.782 183.726 201.905 187.907 205.184 187.907 C 206.98 187.907 207.566 187.134 208.129 184.014 C 208.329 182.904 209.324 180.26 210.34 178.14 C 213.11 172.359 212.783 168.622 209.435 167.816 C 208.334 167.551 207.661 167.813 206.413 168.991 M 341.127 175.844 C 340.796 176.57 340.319 177.039 340.068 176.884 C 339.312 176.416 339.552 177.683 340.49 179.114 C 340.974 179.852 342.479 181.09 343.836 181.866 C 350.31 185.568 355.738 191.073 358.24 196.473 C 364.777 210.576 365.237 211.412 368.097 214.364 C 371.173 217.54 373.01 218.144 374.641 216.512 C 375.876 215.277 375.69 214.082 373.652 210.173 C 372.646 208.241 370.985 204.309 369.963 201.434 C 366.298 191.134 362.326 183.695 358.635 180.222 C 357.742 179.383 355.096 177.755 352.757 176.609 C 349.175 174.853 347.966 174.522 345.116 174.522 C 342.035 174.522 341.675 174.642 341.127 175.844 M 181.313 193.784 C 172.724 193.938 165.542 194.219 165.353 194.409 C 164.641 195.122 164.358 223.39 165.018 227.904 C 166.114 235.4 169.539 244.2 173.943 250.834 C 176.768 255.089 183.054 261.074 186.623 262.905 C 188.316 263.773 189.702 264.541 189.702 264.609 C 189.702 264.679 182.052 264.804 172.703 264.886 C 163.354 264.969 153.536 265.274 150.885 265.564 C 148.236 265.855 144.622 266.148 142.855 266.217 C 139.649 266.342 139.643 266.345 139.811 267.903 C 140.156 271.118 141.865 273.268 147.301 277.334 C 150.242 279.534 152.612 281.344 152.57 281.359 C 152.527 281.372 141.409 281.184 127.864 280.942 C 100.865 280.459 99.065 280.583 93.668 283.307 C 87.747 286.296 81.081 294.081 78.306 301.247 C 76.661 305.499 76.237 316.052 77.496 321.43 C 80.892 335.929 91.391 348.836 102.433 352.083 C 104.052 352.559 105.555 353.218 105.771 353.548 C 105.987 353.877 106.168 357.136 106.173 360.789 L 106.181 367.433 L 94.268 367.115 C 87.716 366.941 79.612 366.978 76.259 367.197 C 70.284 367.589 70.133 367.63 68.63 369.312 C 67.787 370.256 67.097 371.638 67.097 372.384 C 67.097 374.53 68.566 376.845 70.186 377.252 C 70.99 377.455 78.635 377.303 87.175 376.915 C 96.869 376.473 113.056 376.269 130.273 376.37 C 145.438 376.459 160.737 376.549 164.271 376.569 C 167.804 376.588 213.7 376.532 266.263 376.441 C 333.234 376.325 365.34 376.46 373.563 376.891 C 380.015 377.231 385.827 377.374 386.477 377.211 C 388.059 376.814 389.077 374.196 388.71 371.463 C 388.163 367.382 389.043 367.55 367.14 367.377 L 347.591 367.225 L 347.766 360.313 C 347.861 356.513 348.053 353.329 348.192 353.239 C 348.332 353.149 350.252 352.178 352.461 351.079 C 360.207 347.229 365.115 342.125 369.391 333.473 C 372.67 326.84 373.413 323.822 373.729 315.854 C 374.075 307.136 373.594 304.513 370.442 297.954 C 368.628 294.177 367.306 292.312 364.437 289.472 C 359.665 284.751 356.854 282.906 352.222 281.455 C 347.85 280.086 348.336 280.097 313.401 280.615 C 286.419 281.014 288.745 281.513 295.1 276.695 C 299.234 273.559 301.982 270.567 302.687 268.429 C 303.88 264.814 305.202 265.003 278.861 265.003 C 265.748 265.003 255.02 264.871 255.02 264.709 C 255.02 264.416 258.719 260.939 262.74 257.454 C 263.895 256.453 266.064 253.997 267.559 251.995 L 270.278 248.356 L 278.041 248.197 C 284.482 248.065 286.316 247.84 288.808 246.873 C 294.616 244.621 299.742 239.373 302.535 232.821 C 303.807 229.841 303.991 228.711 303.972 224.046 C 303.943 217.068 302.621 213.979 297.458 208.826 C 292.877 204.253 289.67 202.925 282.19 202.502 L 276.97 202.207 L 276.97 198.331 C 276.97 194.78 276.87 194.426 275.766 194.089 C 274.278 193.633 202.671 193.403 181.313 193.784 M 104.878 201.018 C 104.296 203.188 104.561 213.378 105.217 214.034 C 105.887 214.704 113.414 214.95 114.971 214.352 C 115.684 214.078 115.818 212.912 115.818 206.984 L 115.818 199.941 L 110.492 199.941 C 105.611 199.941 105.143 200.032 104.878 201.018 M 174.848 216.149 C 175.063 227.152 175.253 229.393 176.255 232.787 C 180.12 245.87 186.66 253.559 199.326 259.911 C 207.597 264.059 209.545 264.506 220.627 264.799 C 235.351 265.188 235.982 265.098 243.24 261.628 C 247.155 259.756 248.59 258.649 253.489 253.718 C 265.727 241.404 269.095 230.51 267.52 208.334 L 267.174 203.433 L 220.886 203.433 L 174.599 203.433 L 174.848 216.149 M 277.907 210.213 C 277.355 210.365 276.97 210.987 276.97 211.728 C 276.97 214.255 277.46 214.677 280.394 214.677 C 289.708 214.677 293.734 224.476 287.263 231.394 C 285.504 233.274 281.245 234.697 278.486 234.328 C 276.606 234.076 276.317 234.191 275.869 235.37 C 275.592 236.1 275.364 237.316 275.364 238.073 C 275.364 239.442 275.382 239.447 279.028 239.186 C 285.691 238.709 292.025 234.915 294.061 230.182 C 295.84 226.046 296.017 223.001 294.698 219.257 C 293.401 215.578 290.999 212.803 287.946 211.455 C 285.78 210.497 279.631 209.738 277.907 210.213 M 183.219 213.663 C 182.243 214.639 182.119 215.282 182.298 218.442 C 182.552 222.942 183.551 224.314 186.572 224.314 C 189.874 224.314 190.94 222.842 190.673 218.651 C 190.504 215.991 190.177 214.951 189.182 213.891 C 187.564 212.168 184.82 212.063 183.219 213.663 M 277.506 222.373 C 277.506 223.661 277.358 225.457 277.175 226.365 L 276.846 228.014 L 278.915 227.706 C 281.908 227.26 283.397 226.171 283.387 224.436 C 283.382 223.633 283.201 222.721 282.986 222.408 C 282.222 221.31 279.93 220.031 278.725 220.031 C 277.642 220.031 277.506 220.293 277.506 222.373 M 186.088 230.483 C 183.124 232.58 186.613 240.911 190.454 240.911 C 191.209 240.911 192.589 240.23 193.521 239.396 C 195.546 237.588 195.43 236.504 192.788 232.55 C 191.317 230.351 190.743 229.912 189.166 229.783 C 188.087 229.695 186.782 229.991 186.088 230.483 M 197.616 241.848 C 195.1 244.734 195.141 246.659 197.775 249.354 C 200.158 251.791 201.559 251.618 203.865 248.597 C 204.909 247.229 205.763 245.916 205.763 245.68 C 205.763 244.928 199.767 240.911 198.645 240.911 C 198.529 240.911 198.066 241.333 197.616 241.848 M 172.211 273.569 C 163.622 273.717 156.427 274.006 156.222 274.211 C 155.86 274.574 161.462 278.427 164.93 280.199 C 167.768 281.649 170.49 281.728 186.736 280.842 C 204.055 279.896 222.732 279.802 251.915 280.513 C 265.245 280.839 272.21 280.815 273.57 280.44 C 275.537 279.897 283.724 275.406 284.226 274.596 C 284.365 274.369 283.212 274.043 281.662 273.869 C 277.983 273.457 192.394 273.224 172.211 273.569 M 102.017 290.167 C 98.39 290.934 94.583 293.317 91.195 296.939 C 88.325 300.007 87.985 300.636 87.143 304.417 C 84.78 315.04 88.603 329.087 96.17 337.576 C 100.367 342.285 104.844 344.443 112.338 345.37 C 118.267 346.102 337.276 346.056 341.24 345.32 C 342.847 345.022 345.931 343.91 348.094 342.85 C 358.005 337.988 364.226 327.269 364.222 315.063 C 364.221 309.819 363.153 304.542 361.39 301.062 C 359.676 297.68 355.381 293.686 351.507 291.869 L 348.445 290.435 L 280.45 290.026 C 243.053 289.803 210.649 289.758 208.44 289.931 C 203.733 290.295 116.86 290.294 109.393 289.93 C 106.596 289.793 103.276 289.9 102.017 290.167 M 277.503 306.164 C 273.037 307.621 269.11 311.508 267.351 316.208 C 265.536 321.061 266.124 324.32 269.69 329.179 C 274.804 336.146 284.86 336.906 290.724 330.77 C 293.319 328.054 295.162 323.637 295.168 320.12 C 295.175 316.583 293.292 312.347 290.773 310.227 C 286.831 306.91 280.838 305.075 277.503 306.164 M 317.778 306.588 C 314.925 307.598 310.761 311.6 309.202 314.83 C 306.165 321.124 309.747 330.38 316.441 333.537 C 325.865 337.982 336.912 330.818 336.929 320.25 C 336.945 310.32 327.093 303.293 317.778 306.588 M 278.157 315.631 C 276.693 316.656 275.364 319.127 275.364 320.825 C 275.364 322.543 277.994 324.94 280.284 325.311 C 282.797 325.72 285.159 324.435 286.295 322.042 C 287.417 319.676 286.721 317.861 283.985 316.019 C 281.863 314.591 279.834 314.455 278.157 315.631 M 319.382 316.166 C 318.06 317.092 316.589 319.62 316.589 320.966 C 316.589 322.617 319.478 324.853 322.125 325.25 C 327.762 326.095 330.837 320.621 326.923 316.708 C 325.839 315.624 325.015 315.33 323.06 315.33 C 321.675 315.33 320.047 315.701 319.382 316.166 M 115.461 358.485 C 115.654 360.515 115.812 363.175 115.814 364.395 C 115.817 366.267 116.01 366.66 117.062 366.924 C 117.747 367.096 126.602 367.255 136.738 367.279 L 155.168 367.32 L 155.32 361.745 L 155.472 356.171 L 143.273 355.82 C 136.565 355.626 127.484 355.316 123.094 355.13 L 115.113 354.791 L 115.461 358.485 M 165.367 356.823 C 165.235 357.707 165.019 360.383 164.888 362.77 L 164.65 367.111 L 226.7 367.153 L 288.749 367.195 L 288.743 363.347 C 288.74 361.231 288.597 358.657 288.426 357.626 L 288.115 355.752 L 242.405 355.54 C 217.264 355.423 189.7 355.303 181.151 355.272 L 165.608 355.217 L 165.367 356.823 M 298.921 361.165 L 298.921 366.578 L 301.732 366.851 C 303.279 367 311.731 367.018 320.516 366.887 L 336.488 366.65 L 336.489 361.469 L 336.491 356.287 L 332.563 356.159 C 330.403 356.09 321.949 355.969 313.778 355.892 L 298.92 355.752 L 298.921 361.165 M 52.065 367.222 C 50.8 368.487 50.5 369.248 50.5 371.19 C 50.5 373.216 50.758 373.81 52.148 374.979 C 55.964 378.19 60.672 375.375 60.672 369.881 C 60.672 365.836 55.155 364.132 52.065 367.222 M 396.851 367.95 C 392.963 370.935 395.081 376.901 400.028 376.901 C 404.879 376.901 407.286 371.886 403.962 368.702 C 402.784 367.573 401.948 367.266 400.081 367.281 C 398.771 367.29 397.318 367.591 396.851 367.95 M 146.794 389.429 C 146.157 389.753 145.155 390.665 144.567 391.455 C 143.619 392.732 143.578 393.083 144.196 394.576 C 145.629 398.034 139.425 397.791 227.741 397.845 L 308.242 397.895 L 309.21 396.699 C 311.298 394.12 310.753 390.753 308.023 389.371 C 306.219 388.458 148.598 388.515 146.794 389.429 M 146.755 407.565 C 144.584 408.368 143.576 411.075 144.526 413.551 C 145.492 416.068 142.636 415.984 227.455 415.984 C 277.369 415.984 307.381 415.793 307.985 415.469 C 309.297 414.767 310.36 412.014 309.949 410.379 C 309.157 407.221 314.396 407.418 227.503 407.277 C 183.712 407.206 147.376 407.335 146.755 407.565 M 146.275 426.424 C 144.183 427.561 143.366 429.927 144.384 431.896 C 144.829 432.757 145.542 433.752 145.97 434.106 C 146.892 434.871 219.954 435.286 273.639 434.831 L 306.981 434.548 L 308.305 433.223 C 310.133 431.396 310.043 429.166 308.065 427.186 L 306.499 425.621 L 227.087 425.642 C 159.54 425.66 147.465 425.777 146.275 426.424" stroke="none" fill-rule="evenodd" style="filter: none; fill: rgb(127, 129, 130); transform-origin: 50.5px 20.981px;"/>
</svg>